<svg width="1280" height="309" viewBox="0 0 1280 309" fill="none" xmlns="http://www.w3.org/2000/svg">
<path fill-rule="evenodd" clip-rule="evenodd" d="M913.761 7.76039C913.239 31.6975 913.01 55.7947 913.065 80.051C916.312 80.051 919.551 80.051 922.797 80.051C929.039 80.5243 935.295 80.8719 941.565 81.0936C945.221 81.8756 948.001 83.8448 949.906 87.002C950.052 87.9904 950.399 88.917 950.948 89.7824C951.414 107.624 951.414 125.464 950.948 143.305C949.315 149.108 945.492 152.468 939.479 153.384C929.518 153.732 919.558 153.848 909.59 153.732C909.298 166.273 909.646 178.785 910.633 191.267C912.648 192.828 914.845 193.059 917.236 191.962C918.063 184.687 918.758 177.504 919.321 170.414C919.203 173.435 919.321 176.447 919.669 179.45C921.177 177.944 922.679 176.439 924.187 174.932C929.887 171.507 935.448 167.915 940.87 164.158C941.565 163.927 942.03 163.463 942.26 162.768C948.689 159.122 954.945 155.184 961.027 150.951C961.841 150.246 962.306 149.32 962.418 148.171C970.203 126.149 983.41 108.193 1002.04 94.3005C1028.49 76.9418 1055.83 75.4355 1084.06 89.7824C1084.29 86.8859 1084.53 83.9901 1084.76 81.0936C1084.1 59.4294 1083.75 37.7654 1083.71 16.1016C1085.51 11.2862 1088.88 8.15826 1093.79 6.71773C1110.91 4.4688 1128.05 2.49937 1145.23 0.809369C1150.26 0.889375 1154.2 2.97468 1157.05 7.06528C1157.62 8.67257 1158.19 10.2945 1158.78 11.931C1160.99 37.8723 1162.95 63.8231 1164.69 89.7824C1167.84 89.5947 1170.85 89.1311 1173.73 88.3922C1193.7 84.5983 1212 88.4214 1228.64 99.8613C1234.99 104.704 1240.79 110.15 1246.02 116.196C1251.93 123.4 1256.9 131.278 1260.96 139.83C1268.81 164.045 1271.59 188.837 1269.31 214.206C1267.98 225.605 1266.35 236.958 1264.44 248.266C1262.86 253.322 1259.5 256.45 1254.36 257.649C1237.82 259.134 1221.25 260.177 1204.66 260.777C1201.18 260.918 1197.82 260.455 1194.58 259.387C1191.68 257.047 1189.71 254.035 1188.67 250.351C1188.44 236.449 1188.21 222.547 1187.98 208.645C1187.23 200.805 1185.96 193.159 1184.16 185.706C1183.6 177.23 1181.63 169.121 1178.25 161.378C1176.43 165.596 1175.26 169.998 1174.77 174.585C1174.65 181.883 1174.54 189.182 1174.42 196.48C1174.75 212.361 1175.1 228.233 1175.47 244.095C1173.28 250.003 1169 253.131 1162.61 253.479C1142.02 256.151 1121.39 258.236 1100.74 259.735C1099.88 259.185 1098.95 258.837 1097.96 258.692C1096.57 257.533 1095.18 256.375 1093.79 255.217C1091.74 250.81 1090.47 246.176 1089.97 241.315C1067.27 257.439 1042.13 263.116 1014.55 258.345C1001.49 255.347 989.791 249.671 979.448 241.315C969.897 251.249 958.428 258.084 945.04 261.82C914.984 270.879 887.875 265.665 863.713 246.18C862.789 245.485 861.857 244.79 860.933 244.095C860.703 243.4 860.238 242.936 859.543 242.705C856.533 239.578 853.634 236.334 850.854 232.973C850.624 239.229 850.388 245.485 850.159 251.741C847.497 259.396 842.054 262.987 833.824 262.515C818.281 262.998 802.76 263.809 787.252 264.948C784.701 264.832 782.157 264.717 779.606 264.6C777.354 263.359 775.039 262.316 772.655 261.472C763.897 262.811 755.09 263.159 746.241 262.515C742.772 262.081 739.408 261.27 736.162 260.082C735.488 268.861 730.858 273.727 722.26 274.679C698.474 272.723 674.729 270.522 651.012 268.076C649.233 267.809 647.61 267.23 646.146 266.338C642.756 264.218 640.555 261.206 639.543 257.302C637.984 249.239 636.71 241.13 635.72 232.973C634.608 233.16 633.682 232.927 632.939 232.278C633.635 232.278 634.33 232.278 635.025 232.278C634.561 228.803 634.098 225.327 633.635 221.852C630.272 223.115 626.797 223.462 623.208 222.894C621.089 222.473 619.352 221.43 617.995 219.766C616.748 226.906 615.821 234.089 615.214 241.315C613.334 245.907 609.974 248.804 605.135 250.003C581.972 251.774 558.802 253.511 535.625 255.217C531.867 255.431 528.623 254.273 525.894 251.741C501.817 262.099 476.793 265.574 450.823 262.168C451.104 271.207 451.22 280.244 451.17 289.277C448.217 297.185 442.541 300.313 434.14 298.66C409.29 281.572 384.73 264.078 360.46 246.18C360.228 247.454 359.996 248.729 359.764 250.003C360.672 260.069 361.02 270.148 360.807 280.24C359.325 285.429 355.966 288.789 350.728 290.319C329.642 290.768 308.557 291 287.474 291.014C286.609 290.464 285.682 290.117 284.694 289.972C281.303 287.852 279.102 284.84 278.09 280.935C277.762 270.936 277.183 260.973 276.352 251.046C276.453 244.996 276.106 238.972 275.31 232.973C247.958 261.562 215.636 269.324 178.343 256.259C174.482 254.217 170.775 252.016 167.221 249.656C161.938 245.084 157.304 239.987 153.319 234.364C144.161 218.697 139.295 201.783 138.722 183.621C139.323 177.444 140.019 171.189 140.807 164.853C140.721 164.431 140.49 164.2 140.112 164.158C143.033 152.526 148.014 141.868 155.057 132.184C165.565 119.589 177.961 109.395 192.245 101.599C214.016 91.639 236.26 90.5963 258.975 98.4711C262.24 99.6987 265.368 101.205 268.359 102.989C268.704 101.15 268.82 99.2962 268.706 97.4285C268.867 94.3144 268.404 91.3026 267.316 88.3922C263.77 89.3375 260.294 89.1053 256.889 87.6971C252.408 84.7617 250.091 80.591 249.938 75.1852C251.826 63.7752 254.028 52.4214 256.542 41.1253C257.515 38.7603 259.021 36.7908 261.06 35.2169C282.064 25.9891 303.149 16.9528 324.314 8.10794C331.722 6.28774 337.515 8.48892 341.692 14.7114C342.495 18.3693 343.074 22.0765 343.43 25.833C345.229 62.4934 347.661 99.1016 350.728 135.659C353.045 134.5 355.362 133.342 357.679 132.184C358.368 129.441 358.6 126.661 358.374 123.842C358.837 126.059 359.301 128.376 359.764 130.793C368.047 126.305 376.389 122.018 384.788 117.934C398.173 118.947 411.495 120.685 424.757 123.147C458.021 97.1366 494.281 92.0387 533.54 107.855C534.021 107.49 534.368 107.026 534.583 106.465C535.973 92.0991 537.363 77.7342 538.753 63.3685C540.259 59.0818 543.155 56.186 547.442 54.6797C568.294 53.1582 589.147 51.6526 610.001 50.1616C615.349 50.6349 619.751 52.9517 623.208 57.1126C625.012 51.7631 627.792 47.0135 631.549 42.863C632.939 42.1679 634.33 41.4728 635.72 40.7777C650.776 40.0418 665.837 39.8101 680.901 40.0826C684.314 41.2058 687.095 43.1753 689.243 45.991C695.255 72.222 701.052 98.5198 706.62 124.885C706.85 125.464 707.086 126.044 707.315 126.623C709.7 124.941 711.549 122.855 712.876 120.367C718.743 116.248 724.533 111.962 730.254 107.507C746.623 96.5784 764.696 91.7127 784.472 92.9103C787.169 91.4457 789.949 90.1709 792.813 89.0873C793.327 82.839 796.337 78.3208 801.849 75.5328C808.001 75.049 814.139 75.1644 820.269 75.8803C823.96 75.0358 827.547 73.7617 831.043 72.0573C832.885 71.7118 834.734 71.5957 836.604 71.7097C835.833 58.5098 835.485 45.3029 835.562 32.0889C836.771 29.4884 838.509 27.2872 840.775 25.4855C858.993 16.9538 877.302 8.61258 895.688 0.461818C903.383 -1.10814 909.409 1.32472 913.761 7.76039Z" fill="#376ABA"/>
<path fill-rule="evenodd" clip-rule="evenodd" d="M913.761 7.76039C918.042 10.7684 921.17 14.7072 923.144 19.5771C923.11 39.7323 922.992 59.8902 922.797 80.051C919.551 80.051 916.312 80.051 913.065 80.051C913.01 55.7947 913.239 31.6975 913.761 7.76039Z" fill="#223971"/>
<path fill-rule="evenodd" clip-rule="evenodd" d="M1157.05 7.06528C1162.31 10.8193 1166.13 15.685 1168.52 21.6624C1170.36 43.9016 1172.1 66.1448 1173.73 88.3922C1170.85 89.1311 1167.84 89.5947 1164.69 89.7824C1162.95 63.8231 1160.99 37.8723 1158.78 11.931C1158.19 10.2945 1157.62 8.67257 1157.05 7.06528Z" fill="#233A71"/>
<path fill-rule="evenodd" clip-rule="evenodd" d="M899.163 14.0163C899.852 18.7523 900.081 23.618 899.859 28.6134C899.859 50.1616 899.859 71.7097 899.859 93.2579C912.607 93.2002 925.355 93.4317 938.089 93.953C938.089 109.245 938.089 124.537 938.089 139.83C924.646 139.861 911.21 140.093 897.773 140.525C895.591 156.703 895.243 172.921 896.731 189.182C898.962 202.41 906.719 207.854 920.016 205.517C928.997 202.055 933.168 195.451 932.528 185.706C945.04 177.597 957.552 169.488 970.064 161.378C970.543 161.743 970.891 162.206 971.106 162.768C977.71 140.422 989.874 121.77 1007.6 106.812C1027.38 92.7977 1048.69 90.0173 1071.55 98.4712C1083.1 103.533 1092.02 111.527 1098.31 122.452C1097.96 88.16 1097.39 53.8686 1096.57 19.5771C1113.03 17.7235 1129.47 15.8699 1145.92 14.0163C1148.24 45.0645 1150.56 76.1125 1152.88 107.16C1163.3 103.86 1173.96 101.658 1184.85 100.556C1197.88 99.5833 1209.69 102.827 1220.3 110.288C1230.03 118.161 1238.25 127.312 1244.98 137.744C1247.4 141.907 1249.26 146.309 1250.54 150.951C1256.11 170.523 1257.97 190.449 1256.1 210.73C1254.76 222.113 1253.25 233.467 1251.58 244.79C1234.9 245.748 1218.22 246.674 1201.53 247.57C1202.7 224.205 1201.19 201.035 1197.01 178.06C1194.63 165.584 1190.46 153.767 1184.5 142.61C1180.85 138.068 1177.15 138.068 1173.38 142.61C1163.43 157.487 1159.14 173.938 1160.52 191.962C1161.1 207.957 1161.79 223.944 1162.61 239.924C1143.19 242.427 1123.73 244.512 1104.22 246.18C1103.25 232.763 1102.67 219.324 1102.48 205.864C1084.12 236.803 1056.9 250.125 1020.81 245.833C1002.69 242.749 987.984 234.06 976.667 219.766C971.489 232.822 962.223 241.627 948.863 246.18C914.011 259.652 884.587 252.238 860.585 223.937C857.541 218.494 855.455 212.701 854.329 206.559C851.278 184.66 849.999 162.648 850.506 140.525C845.411 140.833 840.316 141.065 835.214 141.22C835.84 177.13 836.298 213.044 836.604 248.961C820.846 249.553 805.088 250.248 789.337 251.046C787.481 251.046 785.632 251.046 783.777 251.046C783.992 248.813 783.763 246.727 783.081 244.79C767.984 250.468 752.692 251.047 737.205 246.528C729.26 243.724 722.545 239.206 717.047 232.973C716.852 232.425 716.505 231.961 716.004 231.583C715.49 232.451 715.608 233.146 716.352 233.668C718.145 242.359 720.001 251.048 721.912 259.735C721.683 260.314 721.447 260.893 721.217 261.472C698.495 259.339 675.786 257.022 653.097 254.521C648.908 231.104 644.621 207.702 640.238 184.316C635.543 192.546 631.025 200.887 626.684 209.34C620.405 198.772 614.265 188.113 608.263 177.365C606.26 197.293 604.291 217.22 602.355 237.144C581.032 238.442 559.715 239.833 538.406 241.315C537.479 241.315 536.552 241.315 535.625 241.315C535.625 240.156 535.625 238.998 535.625 237.839C535.74 235.741 535.624 233.656 535.278 231.583C504.073 249.86 471.056 254.263 436.226 244.79C437.013 258.461 437.592 272.132 437.963 285.801C407.341 263.289 376.525 241.046 345.515 219.071C346.163 238.301 346.975 257.533 347.948 276.765C332.893 277.282 317.832 277.514 302.766 277.46C299.059 277.46 295.352 277.46 291.645 277.46C291.857 275.454 291.626 273.601 290.949 271.899C289.638 243.622 288.133 215.355 286.431 187.097C284.979 194.234 282.43 200.953 278.785 207.255C268.001 223.598 253.751 235.994 236.036 244.442C214.83 253.004 194.672 251.15 175.563 238.882C161.98 225.962 154.449 210.091 152.972 191.267C150.643 172.312 155.045 155.167 166.179 139.83C176.889 127.245 189.748 117.63 204.757 110.983C228.907 102.677 251.383 105.921 272.182 120.714C277.288 125.246 281.111 130.691 283.651 137.049C283.132 115.251 282.089 93.4713 280.523 71.7097C274.713 72.7941 268.921 73.9521 263.145 75.1852C264.876 65.3711 266.961 55.6397 269.401 45.991C289.502 37.4446 309.66 29.1034 329.875 20.9673C332.425 66.6285 335.321 112.274 338.564 157.902C355.075 148.778 371.642 139.741 388.264 130.793C401.56 132.975 414.883 135.06 428.232 137.049C431.952 135.193 435.312 132.761 438.311 129.751C465.29 111.172 494.253 107.464 525.199 118.629C532.551 121.71 539.038 125.997 544.662 131.488C523.345 156.976 502.029 182.462 480.712 207.95C488.522 208.477 495.706 206.507 502.26 202.041C510.337 195.817 516.94 188.287 522.071 179.45C527.662 185.85 533.108 192.338 538.406 198.913C538.447 199.291 538.679 199.522 539.101 199.608C539.782 197.811 540.013 195.957 539.796 194.048C543.428 151.847 547.368 109.678 551.613 67.5391C571.292 66.0551 590.986 65.0124 610.696 64.4112C615.417 72.58 620.398 80.5737 625.641 88.3922C630.227 77.0662 634.745 65.7131 639.195 54.3322C651.928 53.1262 664.672 52.894 677.426 53.6371C685.531 90.4511 693.525 127.291 701.407 164.158C705.147 151.233 711.979 140.227 721.912 131.141C734.834 118.655 750.127 110.545 767.789 106.812C773.489 106.265 779.168 106.381 784.819 107.16C792.563 103.807 800.327 100.563 808.105 97.4285C808.049 94.4437 807.591 91.5472 806.715 88.7397C813.193 88.9448 819.685 88.9448 826.178 88.7397C828.576 87.8875 830.897 86.8449 833.129 85.6118C833.629 87.1313 834.095 88.6376 834.519 90.1299C837.987 90.4768 841.463 90.5929 844.945 90.4775C846.885 91.1566 848.97 91.3881 851.201 91.1726C851.417 88.4818 851.188 85.9329 850.506 83.5265C849.915 69.6217 849.22 55.7196 848.421 41.8204C848.65 39.9667 848.887 38.1132 849.116 36.2596C865.653 28.455 882.335 21.0406 899.163 14.0163Z" fill="#FECB05"/>
<path fill-rule="evenodd" clip-rule="evenodd" d="M341.692 14.7114C346.449 18.1912 350.04 22.5934 352.466 27.9183C354.608 59.8833 356.578 91.8579 358.374 123.842C358.6 126.661 358.368 129.441 357.679 132.184C355.362 133.342 353.045 134.5 350.728 135.659C347.661 99.1016 345.229 62.4934 343.43 25.833C343.074 22.0765 342.495 18.3693 341.692 14.7114Z" fill="#213971"/>
<path fill-rule="evenodd" clip-rule="evenodd" d="M179.733 43.2106C183.344 48.5781 186.24 54.3711 188.422 60.5881C189.793 71.3844 187.94 81.5788 182.861 91.1726C176.475 102.559 169.06 113.217 160.618 123.147C149.163 135.761 137.462 148.158 125.515 160.335C131.079 181.225 136.987 201.962 143.24 222.547C144.556 227.197 144.556 231.831 143.24 236.449C141.994 238.392 140.488 240.129 138.722 241.662C128.064 249.308 117.405 256.954 106.747 264.6C102.039 266.973 97.4046 266.857 92.8455 264.253C89.9643 262.414 87.9943 259.865 86.9371 256.607C72.8237 215.081 58.3427 173.607 43.4932 132.184C42.5446 128.759 41.3862 125.399 40.0177 122.105C37.739 122.303 35.4219 122.65 33.0667 123.147C30.9083 122.646 28.823 121.951 26.8108 121.062C24.7256 119.555 22.9878 117.702 21.5975 115.501C14.6465 96.9649 7.6955 78.4293 0.744484 59.893C-1.23551 53.104 0.733919 47.8907 6.65285 44.2532C35.774 33.3312 65.6635 25.2218 96.321 19.9247C110.687 18.5345 125.052 18.5345 139.417 19.9247C155.709 22.8539 169.147 30.6158 179.733 43.2106Z" fill="#366ABB"/>
<path fill-rule="evenodd" clip-rule="evenodd" d="M899.163 14.0163C899.205 13.6388 899.435 13.4071 899.859 13.3212C900.776 18.5274 900.776 23.6248 899.859 28.6134C900.081 23.618 899.852 18.7523 899.163 14.0163Z" fill="#8A926D"/>
<path fill-rule="evenodd" clip-rule="evenodd" d="M101.882 32.0889C113.719 31.8549 125.536 32.2025 137.332 33.1316C154.541 36.2258 166.937 45.6097 174.52 61.2832C176.162 68.2113 175.467 74.9308 172.435 81.4412C169.95 87.1083 166.938 92.4377 163.398 97.4285C148.266 118.59 130.657 137.59 110.571 154.427C110.343 156.308 110.574 158.162 111.266 159.988C117.939 183.137 124.543 206.307 131.076 229.498C121.308 237.635 111.113 245.281 100.492 252.436C82.1993 201.617 64.2427 150.642 46.6212 99.5138C46.3302 98.6991 45.8668 98.004 45.231 97.4285C41.3628 101.235 37.6556 105.173 34.1094 109.245C33.8777 109.014 33.6459 108.782 33.4143 108.55C26.8791 91.1455 20.2756 73.7679 13.6039 56.4175C42.2895 45.3668 71.7158 37.2572 101.882 32.0889Z" fill="#FDCB06"/>
<path fill-rule="evenodd" clip-rule="evenodd" d="M179.733 43.2106C188.473 50.7204 194.614 59.9882 198.153 71.0146C198.656 76.6046 198.424 82.1655 197.458 87.6971C195.909 92.4154 194.171 97.049 192.245 101.599C177.961 109.395 165.565 119.589 155.057 132.184C148.014 141.868 143.033 152.526 140.112 164.158C138.06 165.747 136.207 167.6 134.552 169.719C136.364 174.23 137.754 178.863 138.722 183.621C139.295 201.783 144.161 218.697 153.319 234.364C154.593 239.228 154.014 243.861 151.582 248.266C139.615 257.782 127.219 266.703 114.394 275.027C109.702 275.952 105.3 275.257 101.187 272.942C98.2645 270.136 95.4841 267.24 92.8455 264.253C97.4046 266.857 102.039 266.973 106.747 264.6C117.405 256.954 128.064 249.308 138.722 241.662C140.488 240.129 141.994 238.392 143.24 236.449C144.556 231.831 144.556 227.197 143.24 222.547C136.987 201.962 131.079 181.225 125.515 160.335C137.462 148.158 149.163 135.761 160.618 123.147C169.06 113.217 176.475 102.559 182.861 91.1726C187.94 81.5788 189.793 71.3844 188.422 60.5881C186.24 54.3711 183.344 48.5781 179.733 43.2106Z" fill="#203870"/>
<path fill-rule="evenodd" clip-rule="evenodd" d="M689.243 45.991C693.997 49.4707 697.591 53.8727 700.017 59.1979C704.382 79.5825 708.664 99.9719 712.876 120.367C711.549 122.855 709.7 124.941 707.315 126.623C707.086 126.044 706.85 125.464 706.62 124.885C701.052 98.5198 695.255 72.222 689.243 45.991Z" fill="#223A71"/>
<path fill-rule="evenodd" clip-rule="evenodd" d="M108.138 81.4412C114.661 81.2215 121.149 81.5691 127.601 82.4838C128.961 83.9581 129.308 85.6959 128.643 87.6971C126.571 92.7692 123.791 97.4035 120.302 101.599C113.84 109.222 107.12 116.636 100.144 123.842C97.1245 112.459 93.9965 101.105 90.7602 89.7824C93.2451 87.1403 96.2577 85.1711 99.7965 83.874C102.607 82.8376 105.387 82.0264 108.138 81.4412Z" fill="#376ABA"/>
<path fill-rule="evenodd" clip-rule="evenodd" d="M256.889 87.6971C260.294 89.1053 263.77 89.3375 267.316 88.3922C268.404 91.3026 268.867 94.3144 268.706 97.4285C263.976 95.2563 260.037 92.013 256.889 87.6971Z" fill="#213A72"/>
<path fill-rule="evenodd" clip-rule="evenodd" d="M949.906 87.002C955.237 90.6999 958.942 95.5656 961.027 101.599C961.027 118.05 961.027 134.5 961.027 150.951C954.945 155.184 948.689 159.122 942.26 162.768C934.718 162.54 927.308 162.772 920.016 163.463C919.335 165.635 919.106 167.952 919.321 170.414C918.758 177.504 918.063 184.687 917.236 191.962C914.845 193.059 912.648 192.828 910.633 191.267C909.646 178.785 909.298 166.273 909.59 153.732C919.558 153.848 929.518 153.732 939.479 153.384C945.492 152.468 949.315 149.108 950.948 143.305C951.414 125.464 951.414 107.624 950.948 89.7824C950.399 88.917 950.052 87.9904 949.906 87.002Z" fill="#1F3870"/>
<path fill-rule="evenodd" clip-rule="evenodd" d="M850.506 83.5265C851.188 85.9329 851.417 88.4818 851.201 91.1726C848.97 91.3881 846.885 91.1566 844.945 90.4775C846.801 90.4775 848.65 90.4775 850.506 90.4775C850.506 88.1607 850.506 85.8432 850.506 83.5265Z" fill="#7C8980"/>
<path fill-rule="evenodd" clip-rule="evenodd" d="M26.8108 121.062C28.823 121.951 30.9083 122.646 33.0667 123.147C35.4219 122.65 37.739 122.303 40.0177 122.105C41.3862 125.399 42.5446 128.759 43.4932 132.184C40.3307 132.612 37.5503 131.801 35.152 129.751C32.2301 126.945 29.4497 124.049 26.8108 121.062Z" fill="#233B73"/>
<path fill-rule="evenodd" clip-rule="evenodd" d="M1246.02 116.196C1264.62 132.542 1275.16 153.162 1277.65 178.06C1279.75 190.721 1280.44 203.464 1279.73 216.291C1278.03 230.21 1276.17 244.112 1274.17 257.997C1272.34 262.837 1268.99 265.965 1264.09 267.381C1245.14 269.276 1226.13 270.204 1207.09 270.161C1202.17 267.443 1198 263.853 1194.58 259.387C1197.82 260.455 1201.18 260.918 1204.66 260.777C1221.25 260.177 1237.82 259.134 1254.36 257.649C1259.5 256.45 1262.86 253.322 1264.44 248.266C1266.35 236.958 1267.98 225.605 1269.31 214.206C1271.59 188.837 1268.81 164.045 1260.96 139.83C1256.9 131.278 1251.93 123.4 1246.02 116.196Z" fill="#223971"/>
<path fill-rule="evenodd" clip-rule="evenodd" d="M235.341 128.013C237.209 127.899 239.063 128.015 240.902 128.361C227.305 134.669 223.83 144.401 230.476 157.555C236.313 159.559 241.642 158.632 246.463 154.774C252.245 150.147 256.069 144.239 257.932 137.049C261.54 153.998 257.022 168.479 244.378 180.493C235.472 185.321 226.436 185.553 217.269 181.188C202.428 173.156 199.069 161.686 207.19 146.781C214.309 137.138 223.693 130.882 235.341 128.013Z" fill="#386AB9"/>
<path fill-rule="evenodd" clip-rule="evenodd" d="M779.606 128.708C780.558 128.599 781.49 128.715 782.386 129.056C774.261 136.189 772.057 144.878 775.783 155.122C777.555 157.688 779.988 158.846 783.081 158.597C783.081 167.17 783.081 175.744 783.081 184.316C770.597 185.312 760.518 180.91 752.844 171.109C748.604 161.025 749.995 151.758 757.015 143.305C763.278 136.413 770.806 131.548 779.606 128.708Z" fill="#376ABA"/>
<path fill-rule="evenodd" clip-rule="evenodd" d="M1043.05 144C1049.39 143.375 1055.41 144.417 1061.12 147.128C1062.67 149.217 1064.3 151.186 1065.99 153.037C1077.09 150.569 1088.21 148.252 1099.35 146.086C1099.53 160.482 1100.23 174.848 1101.44 189.182C1089.31 186.988 1077.26 184.439 1065.29 181.536C1061.71 191.018 1055.92 198.781 1047.92 204.822C1031.77 212.575 1021.93 207.593 1018.37 189.877C1015.7 177.864 1017.32 166.51 1023.24 155.817C1028.47 149.443 1035.07 145.504 1043.05 144Z" fill="#376ABA"/>
<path fill-rule="evenodd" clip-rule="evenodd" d="M470.286 148.866C474.231 148.751 478.17 148.867 482.102 149.214C484.549 149.681 486.866 150.493 489.053 151.646C477.247 166.694 465.199 181.523 452.908 196.133C449.415 187.098 448.603 177.83 450.475 168.329C453.566 158.171 460.169 151.683 470.286 148.866Z" fill="#386ABA"/>
<path fill-rule="evenodd" clip-rule="evenodd" d="M418.153 154.427C418.53 154.469 418.762 154.7 418.848 155.122C409.022 176.606 407.169 198.617 413.287 221.157C399.519 210.98 385.848 200.668 372.276 190.225C387.897 178.652 403.19 166.72 418.153 154.427Z" fill="#376ABA"/>
<path fill-rule="evenodd" clip-rule="evenodd" d="M1060.43 168.329C1049.71 166.122 1043.11 170.525 1040.62 181.536C1040.27 185.468 1040.15 189.407 1040.27 193.353C1038.68 194.695 1036.82 195.274 1034.71 195.09C1032.57 192.078 1031.3 188.719 1030.89 185.011C1029.67 177.417 1030.82 170.234 1034.36 163.463C1038.71 158.467 1044.15 156.498 1050.7 157.555C1052.5 160.061 1054.59 162.378 1056.95 164.506C1059.07 165.916 1061.39 166.727 1063.9 166.939C1071.33 165.548 1078.74 164.158 1086.15 162.768C1086.15 165.78 1086.15 168.793 1086.15 171.804C1080.25 171.344 1074.46 170.301 1068.77 168.676C1065.99 168.33 1063.21 168.213 1060.43 168.329Z" fill="#203870"/>
<path fill-rule="evenodd" clip-rule="evenodd" d="M1184.16 185.706C1183.9 206.229 1184.36 226.735 1185.55 247.223C1186.25 256.722 1181.84 262.051 1172.34 263.21C1153.11 265.411 1133.88 267.612 1114.64 269.814C1111.57 270.017 1108.79 269.206 1106.3 267.381C1103.38 264.575 1100.6 261.68 1097.96 258.692C1098.95 258.837 1099.88 259.185 1100.74 259.735C1121.39 258.236 1142.02 256.151 1162.61 253.479C1169 253.131 1173.28 250.003 1175.47 244.095C1175.1 228.233 1174.75 212.361 1174.42 196.48C1174.54 189.182 1174.65 181.883 1174.77 174.585C1175.26 169.998 1176.43 165.596 1178.25 161.378C1181.63 169.121 1183.6 177.23 1184.16 185.706Z" fill="#223971"/>
<path fill-rule="evenodd" clip-rule="evenodd" d="M539.796 194.048C540.013 195.957 539.782 197.811 539.101 199.608C538.679 199.522 538.447 199.291 538.406 198.913C538.869 197.292 539.332 195.669 539.796 194.048Z" fill="#ACA157"/>
<path fill-rule="evenodd" clip-rule="evenodd" d="M632.939 232.278C630.908 231.726 629.054 230.799 627.379 229.498C626.655 236.967 625.612 244.381 624.251 251.741C622.402 255.906 619.274 258.57 614.867 259.735C590.314 261.753 565.754 263.375 541.186 264.6C539.151 263.641 537.181 262.599 535.278 261.472C511.215 271.216 486.307 274.691 460.554 271.899C460.99 280.702 461.106 289.507 460.902 298.313C458.502 306.49 453.058 309.85 444.567 308.392C443.353 308.064 442.195 307.601 441.091 307.002C417.555 289.837 393.922 272.807 370.191 255.912C369.96 256.375 369.727 256.838 369.496 257.302C370.314 268.407 370.662 279.528 370.539 290.667C369.296 294.434 366.863 297.099 363.24 298.66C357.036 299.528 350.78 299.992 344.472 300.051C328.942 300.405 313.418 300.637 297.9 300.746C292.575 298.32 288.173 294.729 284.694 289.972C285.682 290.117 286.609 290.464 287.474 291.014C308.557 291 329.642 290.768 350.728 290.319C355.966 288.789 359.325 285.429 360.807 280.24C361.02 270.148 360.672 260.069 359.764 250.003C359.996 248.729 360.228 247.454 360.46 246.18C384.73 264.078 409.29 281.572 434.14 298.66C442.541 300.313 448.217 297.185 451.17 289.277C451.22 280.244 451.104 271.207 450.823 262.168C476.793 265.574 501.817 262.099 525.894 251.741C528.623 254.273 531.867 255.431 535.625 255.217C558.802 253.511 581.972 251.774 605.135 250.003C609.974 248.804 613.334 245.907 615.214 241.315C615.821 234.089 616.748 226.906 617.995 219.766C619.352 221.43 621.089 222.473 623.208 222.894C626.797 223.462 630.272 223.115 633.635 221.852C634.098 225.327 634.561 228.803 635.025 232.278C634.33 232.278 633.635 232.278 632.939 232.278Z" fill="#213971"/>
<path fill-rule="evenodd" clip-rule="evenodd" d="M717.047 232.973C716.581 232.973 716.352 233.205 716.352 233.668C715.608 233.146 715.49 232.451 716.004 231.583C716.505 231.961 716.852 232.425 717.047 232.973Z" fill="#8D946C"/>
<path fill-rule="evenodd" clip-rule="evenodd" d="M276.352 251.046C256.784 267.106 234.31 274.173 208.927 272.247C192.27 269.598 178.368 262.068 167.221 249.656C170.775 252.016 174.482 254.217 178.343 256.259C215.636 269.324 247.958 261.562 275.31 232.973C276.106 238.972 276.453 244.996 276.352 251.046Z" fill="#213971"/>
<path fill-rule="evenodd" clip-rule="evenodd" d="M859.543 242.705C859.543 248.497 859.543 254.29 859.543 260.082C858.792 266.739 855.087 270.562 848.421 271.551C828.722 272.721 809.03 273.648 789.337 274.332C787.064 273.079 784.75 272.036 782.386 271.204C769.756 273.417 757.245 272.954 744.851 269.814C745.004 279.041 740.486 283.907 731.296 284.411C707.072 282.074 682.862 279.641 658.658 277.112C653.739 274.394 649.568 270.804 646.146 266.338C647.61 267.23 649.233 267.809 651.012 268.076C674.729 270.522 698.474 272.723 722.26 274.679C730.858 273.727 735.488 268.861 736.162 260.082C739.408 261.27 742.772 262.081 746.241 262.515C755.09 263.159 763.897 262.811 772.655 261.472C775.039 262.316 777.354 263.359 779.606 264.6C782.157 264.717 784.701 264.832 787.252 264.948C802.76 263.809 818.281 262.998 833.824 262.515C842.054 262.987 847.497 259.396 850.159 251.741C850.388 245.485 850.624 239.229 850.854 232.973C853.634 236.334 856.533 239.578 859.543 242.705Z" fill="#213870"/>
<path fill-rule="evenodd" clip-rule="evenodd" d="M535.625 237.839C535.625 238.998 535.625 240.156 535.625 241.315C536.552 241.315 537.479 241.315 538.406 241.315C537.419 241.976 536.261 242.207 534.93 242.01C534.725 240.456 534.957 239.066 535.625 237.839Z" fill="#90956A"/>
<path fill-rule="evenodd" clip-rule="evenodd" d="M1093.79 255.217C1068.1 270.389 1040.99 273.517 1012.46 264.6C1004 261.215 996.234 256.696 989.179 251.046C980.49 259.971 970.175 266.342 958.247 270.161C921.427 282.389 889.912 274.395 863.713 246.18C887.875 265.665 914.984 270.879 945.04 261.82C958.428 258.084 969.897 251.249 979.448 241.315C989.791 249.671 1001.49 255.347 1014.55 258.345C1042.13 263.116 1067.27 257.439 1089.97 241.315C1090.47 246.176 1091.74 250.81 1093.79 255.217Z" fill="#213971"/>
<path fill-rule="evenodd" clip-rule="evenodd" d="M783.081 244.79C783.763 246.727 783.992 248.813 783.777 251.046C785.632 251.046 787.481 251.046 789.337 251.046C787.398 251.725 785.313 251.957 783.081 251.741C783.081 249.424 783.081 247.107 783.081 244.79Z" fill="#979962"/>
<path fill-rule="evenodd" clip-rule="evenodd" d="M290.949 271.899C291.626 273.601 291.857 275.454 291.645 277.46C295.352 277.46 299.059 277.46 302.766 277.46C298.96 278.147 295.021 278.379 290.949 278.155C290.949 276.07 290.949 273.984 290.949 271.899Z" fill="#A9A153"/>
</svg>
